<svg width="36" height="36" viewBox="0 0 36 36" fill="none" xmlns="http://www.w3.org/2000/svg">
<path d="M22.5 11.6576C22.5 13.6777 20.9132 15.279 19 15.279C17.0868 15.279 15.5 13.6777 15.5 11.6576C15.5 9.63744 17.0868 8.03613 19 8.03613C20.9132 8.03613 22.5 9.63744 22.5 11.6576Z" stroke="#FE6A38" stroke-width="1.5" stroke-linecap="round"/>
<path d="M21.545 9.47467C21.8238 8.97807 22.2375 8.58103 22.731 8.33068C23.2243 8.08047 23.7769 7.987 24.3198 8.06051C24.8628 8.13404 25.375 8.37182 25.791 8.74705C26.2072 9.1225 26.5085 9.61898 26.6534 10.1752C26.7983 10.7316 26.7795 11.3199 26.5997 11.8649C26.4199 12.4097 26.0881 12.8842 25.6495 13.2303C25.2113 13.5762 24.6856 13.7789 24.1394 13.8157C23.5931 13.8526 23.0473 13.7222 22.5703 13.4389" stroke="#FE6A38" stroke-width="1.5"/>
<path d="M16.455 9.47467C16.1762 8.97807 15.7625 8.58103 15.269 8.33068C14.7757 8.08047 14.2231 7.987 13.6802 8.06051C13.1372 8.13404 12.625 8.37182 12.209 8.74705C11.7928 9.1225 11.4915 9.61898 11.3466 10.1752C11.2017 10.7316 11.2205 11.3199 11.4003 11.8649C11.5801 12.4097 11.9119 12.8842 12.3505 13.2303C12.7887 13.5762 13.3144 13.7789 13.8606 13.8157C14.4069 13.8526 14.9527 13.7222 15.4297 13.4389" stroke="#FE6A38" stroke-width="1.5"/>
<path d="M19.0002 18.2139C25.1564 18.2139 26.4486 23.6717 26.7198 25.9629C26.7847 26.5114 26.3441 26.9567 25.7918 26.9567H12.2085C11.6562 26.9567 11.2156 26.5114 11.2805 25.9629C11.5518 23.6717 12.8439 18.2139 19.0002 18.2139Z" stroke="#FE6A38" stroke-width="1.5" stroke-linecap="round"/>
<path d="M29.4479 22.9573L28.7134 23.1091V23.1091L29.4479 22.9573ZM20.54 18.3392L19.9791 17.8413L19.0829 18.851L20.4137 19.0784L20.54 18.3392ZM26.3402 24.0426L25.6182 24.2456L25.772 24.7926H26.3402V24.0426ZM23.9583 17.5068C25.5008 17.5068 26.5622 18.3447 27.3254 19.5073C28.1004 20.6877 28.5111 22.1304 28.7134 23.1091L30.1824 22.8055C29.965 21.7538 29.5065 20.0963 28.5794 18.6841C27.6406 17.254 26.167 16.0068 23.9583 16.0068V17.5068ZM21.1009 18.8371C21.806 18.0428 22.72 17.5068 23.9583 17.5068V16.0068C22.2123 16.0068 20.9119 16.7905 19.9791 17.8413L21.1009 18.8371ZM20.4137 19.0784C23.6419 19.6302 25.0185 22.1137 25.6182 24.2456L27.0622 23.8395C26.3965 21.4728 24.7346 18.2953 20.6664 17.5999L20.4137 19.0784ZM28.523 23.2926H26.3402V24.7926H28.523V23.2926ZM28.7134 23.1091C28.7237 23.1587 28.7117 23.1947 28.6848 23.2258C28.6547 23.2605 28.6004 23.2926 28.523 23.2926V24.7926C29.5404 24.7926 30.4077 23.8955 30.1824 22.8055L28.7134 23.1091Z" fill="#FE6A38"/>
<path d="M17.4598 18.3392L17.5862 19.0784L18.917 18.851L18.0207 17.8413L17.4598 18.3392ZM8.55193 22.9573L7.81746 22.8055L8.55193 22.9573ZM11.6597 24.0426V24.7926H12.2278L12.3817 24.2456L11.6597 24.0426ZM14.0415 17.5068C15.2798 17.5068 16.1939 18.0428 16.8989 18.8371L18.0207 17.8413C17.088 16.7905 15.7876 16.0068 14.0415 16.0068V17.5068ZM9.2864 23.1091C9.48873 22.1304 9.89945 20.6877 10.6744 19.5073C11.4377 18.3447 12.499 17.5068 14.0415 17.5068V16.0068C11.8328 16.0068 10.3593 17.254 9.42048 18.6841C8.49337 20.0962 8.03488 21.7538 7.81746 22.8055L9.2864 23.1091ZM9.47681 23.2926C9.39942 23.2926 9.34511 23.2605 9.31506 23.2258C9.28812 23.1947 9.27615 23.1587 9.2864 23.1091L7.81746 22.8055C7.59213 23.8955 8.45947 24.7926 9.47681 24.7926V23.2926ZM11.6597 23.2926H9.47681V24.7926H11.6597V23.2926ZM12.3817 24.2456C12.9813 22.1137 14.358 19.6302 17.5862 19.0784L17.3335 17.5999C13.2653 18.2953 11.6034 21.4728 10.9377 23.8395L12.3817 24.2456Z" fill="#FE6A38"/>
</svg>
