<svg width="91" height="90" viewBox="0 0 91 90" fill="none" xmlns="http://www.w3.org/2000/svg">
<path d="M19.3086 35.1797C18.6332 41.0516 19.0308 44.8407 27.655 44.1883" stroke="black" stroke-width="2.24551" stroke-linecap="round" stroke-linejoin="round"/>
<path d="M33.53 35.501C34.2055 41.3728 33.3845 44.8407 24.7604 44.1883" stroke="black" stroke-width="2.24551" stroke-linecap="round" stroke-linejoin="round"/>
<path d="M55.0821 35.1797C54.4066 41.0516 54.8043 44.8407 63.4284 44.1883" stroke="black" stroke-width="2.24551" stroke-linecap="round" stroke-linejoin="round"/>
<path d="M69.3035 35.501C69.9789 41.3728 69.158 44.8407 60.5338 44.1883" stroke="black" stroke-width="2.24551" stroke-linecap="round" stroke-linejoin="round"/>
<path d="M43.6348 42.665V47.1561L46.1294 44.7075M48.1258 42.665L46.1294 44.7075M46.1294 44.7075L48.1258 47.1561" stroke="#FF865D" stroke-width="2.24551" stroke-linecap="round" stroke-linejoin="round"/>
<path d="M63.0957 60.9961L66.0897 64.3709" stroke="black" stroke-width="2.24551" stroke-linecap="round" stroke-linejoin="round"/>
<path d="M61.7165 64.8881C63.767 67.8675 65.9835 70.0702 69.0565 66.976" stroke="black" stroke-width="2.24551" stroke-linecap="round" stroke-linejoin="round"/>
<path d="M67.1755 60.3189C69.7476 62.8617 71.5259 65.4312 67.9392 67.9118" stroke="black" stroke-width="2.24551" stroke-linecap="round" stroke-linejoin="round"/>
<path d="M21.9282 50.8984C21.9282 50.8984 26.045 65.8685 45.8805 65.8685C48.6857 65.8685 51.169 65.5691 53.3653 65.055M69.4582 50.8984C69.4582 50.8984 69.1713 52.046 68.3354 53.7058M58.9791 63.0299C62.5924 61.1914 64.1121 59.4828 65.7156 57.2607" stroke="black" stroke-width="2.24551" stroke-linecap="round" stroke-linejoin="round"/>
<path d="M15.1914 26.9465V8.98242L37.6465 19.0872" stroke="#FE6A38" stroke-width="3.74251" stroke-linecap="round" stroke-linejoin="round"/>
<path d="M73.9487 26.9465V8.98242L51.8679 19.0872" stroke="#FE6A38" stroke-width="3.74251" stroke-linecap="round" stroke-linejoin="round"/>
<path d="M84.8027 38.1738L74.3237 41.9163" stroke="black" stroke-width="2.24551" stroke-linecap="round" stroke-linejoin="round"/>
<path d="M85.5508 45.911L74.4252 45.6793" stroke="black" stroke-width="2.24551" stroke-linecap="round" stroke-linejoin="round"/>
<path d="M84.9268 52.7578L74.3233 49.384" stroke="black" stroke-width="2.24551" stroke-linecap="round" stroke-linejoin="round"/>
<path d="M3.96387 38.1738L14.4429 41.9163" stroke="black" stroke-width="2.24551" stroke-linecap="round" stroke-linejoin="round"/>
<path d="M3.21582 45.911L14.3414 45.6793" stroke="black" stroke-width="2.24551" stroke-linecap="round" stroke-linejoin="round"/>
<path d="M3.83984 52.7578L14.4433 49.384" stroke="black" stroke-width="2.24551" stroke-linecap="round" stroke-linejoin="round"/>
</svg>
