<svg width="26" height="22" viewBox="0 0 26 22" fill="none" xmlns="http://www.w3.org/2000/svg">
<path d="M0.25 4.33398H22.55C23.6701 4.33398 24.2302 4.33398 24.658 4.55197C25.0343 4.74372 25.3403 5.04968 25.532 5.426C25.75 5.85383 25.75 6.41388 25.75 7.53398V18.134C25.75 19.2541 25.75 19.8141 25.532 20.242C25.3403 20.6183 25.0343 20.9242 24.658 21.116C24.2302 21.334 23.6701 21.334 22.55 21.334H3.45C2.3299 21.334 1.76984 21.334 1.34202 21.116C0.965695 20.9242 0.659734 20.6183 0.467987 20.242C0.25 19.8141 0.25 19.2541 0.25 18.134V4.33398Z" fill="#FE6A38"/>
<path d="M0.25 4.08398C0.25 2.19837 0.25 1.25556 0.835786 0.669771C1.42157 0.0839844 2.36438 0.0839844 4.25 0.0839844H8.50981C9.32731 0.0839844 9.73606 0.0839844 10.1036 0.236225C10.4711 0.388466 10.7602 0.677497 11.3382 1.25556L14.4167 4.33398H0.25V4.08398Z" fill="#FE6A38"/>
</svg>
