<svg width="128" height="45" viewBox="0 0 128 45" fill="none" xmlns="http://www.w3.org/2000/svg">
<path d="M2 19.9641V3.49707L14.0199 16.6225L25.2036 3.49707V19.9641" stroke="#FE6A38" stroke-width="2.99401" stroke-linecap="round" stroke-linejoin="round"/>
<path d="M84.335 19.9641L93.8316 2L106.042 19.9641" stroke="#FE6A38" stroke-width="2.99401" stroke-linecap="round" stroke-linejoin="round"/>
<path d="M30.7376 3.71289C29.7353 13.3524 30.5774 21.6829 43.3755 20.6118" stroke="black" stroke-width="2.99401" stroke-linecap="round" stroke-linejoin="round"/>
<path d="M51.718 3.71289C52.7203 13.3524 51.8782 21.6829 39.0801 20.6118" stroke="black" stroke-width="2.99401" stroke-linecap="round" stroke-linejoin="round"/>
<path d="M57.3896 3.49707V19.9641L69.0311 11.2868M78.3477 3.49707L69.0311 11.2868M69.0311 11.2868L78.3477 19.9641" stroke="black" stroke-width="2.99401" stroke-linecap="round" stroke-linejoin="round"/>
<path d="M106.042 2.74805H116.147M126.252 2.74805H116.147M116.147 2.74805V19.2151" stroke="black" stroke-width="2.99401" stroke-linecap="round" stroke-linejoin="round"/>
<path d="M46.1616 32.6875V43.915H54.3952" stroke="#FE6A38" stroke-width="1.49701" stroke-linecap="round" stroke-linejoin="round"/>
<path d="M57.3892 32.6875V43.915" stroke="#FE6A38" stroke-width="1.49701" stroke-linecap="round" stroke-linejoin="round"/>
<path d="M68.3051 34.8692C65.246 30.6779 60.6036 33.4895 60.6036 35.3361C60.6036 37.1827 62.5111 37.3178 64.7573 37.5659C65.9874 37.7018 69.0083 38.536 68.4648 41.3748C67.9524 44.0517 65.3427 44.2797 64.1307 44.1967C61.8531 44.0407 59.6741 42.5576 60.6036 40.5655" stroke="#FE6A38" stroke-width="1.49701" stroke-linecap="round" stroke-linejoin="round"/>
<path d="M70.8623 32.6875H76.1018M81.3413 32.6875H76.1018M76.1018 32.6875V43.915" stroke="#FE6A38" stroke-width="1.49701" stroke-linecap="round" stroke-linejoin="round"/>
</svg>
