<svg width="83" height="83" viewBox="0 0 83 83" fill="none" xmlns="http://www.w3.org/2000/svg">
<path d="M16.9462 32.5088C16.3221 37.9348 16.6895 41.4362 24.6588 40.8334" stroke="black" stroke-width="2.075" stroke-linecap="round" stroke-linejoin="round"/>
<path d="M30.0865 32.8057C30.7106 38.2317 29.952 41.4362 21.9828 40.8333" stroke="black" stroke-width="2.075" stroke-linecap="round" stroke-linejoin="round"/>
<path d="M50.0048 32.5078C49.3807 37.9338 49.7481 41.4353 57.7174 40.8324" stroke="black" stroke-width="2.075" stroke-linecap="round" stroke-linejoin="round"/>
<path d="M63.1451 32.8047C63.7692 38.2307 63.0106 41.4352 55.0413 40.8323" stroke="black" stroke-width="2.075" stroke-linecap="round" stroke-linejoin="round"/>
<path d="M39.4243 39.4248V43.5748L41.7295 41.3122M43.5743 39.4248L41.7295 41.3122M41.7295 41.3122L43.5743 43.5748" stroke="#FF865D" stroke-width="2.075" stroke-linecap="round" stroke-linejoin="round"/>
<path d="M19.3677 60.8662C19.3677 60.8662 23.1718 47.0329 41.5012 47.0329C44.0934 47.0329 46.3881 47.3095 48.4177 47.7846M63.2885 60.8662C63.2885 60.8662 63.0234 59.8057 62.251 58.2721M53.6052 49.6559C56.9441 51.3548 58.3484 52.9337 59.8302 54.987" stroke="black" stroke-width="2.075" stroke-linecap="round" stroke-linejoin="round"/>
<path d="M13.1421 24.8998V8.2998L33.8921 17.6373" stroke="#FE6A38" stroke-width="3.45833" stroke-linecap="round" stroke-linejoin="round"/>
<path d="M67.4375 24.8998V8.2998L47.0333 17.6373" stroke="#FE6A38" stroke-width="3.45833" stroke-linecap="round" stroke-linejoin="round"/>
<path d="M77.4648 35.2754L67.7815 38.7337" stroke="black" stroke-width="2.075" stroke-linecap="round" stroke-linejoin="round"/>
<path d="M78.1553 42.4257L67.8745 42.2115" stroke="black" stroke-width="2.075" stroke-linecap="round" stroke-linejoin="round"/>
<path d="M77.5791 48.752L67.7808 45.6343" stroke="black" stroke-width="2.075" stroke-linecap="round" stroke-linejoin="round"/>
<path d="M2.76758 35.2754L12.4509 38.7337" stroke="black" stroke-width="2.075" stroke-linecap="round" stroke-linejoin="round"/>
<path d="M2.07617 42.4257L12.357 42.2115" stroke="black" stroke-width="2.075" stroke-linecap="round" stroke-linejoin="round"/>
<path d="M2.65234 48.752L12.4507 45.6343" stroke="black" stroke-width="2.075" stroke-linecap="round" stroke-linejoin="round"/>
</svg>
