<svg width="34" height="34" viewBox="0 0 34 34" fill="none" xmlns="http://www.w3.org/2000/svg">
<path d="M4.25 11.333H26.55C27.6701 11.333 28.2302 11.333 28.658 11.551C29.0343 11.7427 29.3403 12.0487 29.532 12.425C29.75 12.8529 29.75 13.4129 29.75 14.533V25.133C29.75 26.2531 29.75 26.8132 29.532 27.241C29.3403 27.6173 29.0343 27.9233 28.658 28.115C28.2302 28.333 27.6701 28.333 26.55 28.333H7.45C6.3299 28.333 5.76984 28.333 5.34202 28.115C4.96569 27.9233 4.65973 27.6173 4.46799 27.241C4.25 26.8132 4.25 26.2531 4.25 25.133V11.333Z" fill="#B6B6B6"/>
<path d="M4.25 11.083C4.25 9.19739 4.25 8.25458 4.83579 7.66879C5.42157 7.08301 6.36438 7.08301 8.25 7.08301H12.5098C13.3273 7.08301 13.7361 7.08301 14.1036 7.23525C14.4711 7.38749 14.7602 7.67652 15.3382 8.25458L18.4167 11.333H4.25V11.083Z" fill="#B6B6B6"/>
</svg>
