<svg width="31" height="31" viewBox="0 0 31 31" fill="none" xmlns="http://www.w3.org/2000/svg">
<path d="M21.935 9.43298L21.9349 9.43297L21.9254 9.42345L21.9254 9.42344L21.5672 9.06522L21.5383 9.03637C21.1497 8.6477 20.8149 8.31282 20.5107 8.08071C20.1846 7.83197 19.822 7.64362 19.3752 7.64362C18.9283 7.64362 18.5657 7.83197 18.2397 8.08071C17.9355 8.31281 17.6006 8.64769 17.212 9.03635L17.1831 9.06522L7.79748 18.4509C7.78381 18.4645 7.77024 18.4781 7.75677 18.4915C7.55531 18.6926 7.37696 18.8705 7.25127 19.0925C7.12557 19.3145 7.06472 19.559 6.99599 19.8352C6.99139 19.8537 6.98676 19.8723 6.98207 19.891L6.10763 23.3888C6.10488 23.3998 6.10212 23.4108 6.09934 23.4219C6.05068 23.6162 5.99871 23.8237 5.98167 23.998C5.9629 24.1898 5.96727 24.5136 6.22694 24.7732C6.48661 25.0329 6.81032 25.0373 7.00219 25.0185C7.17645 25.0015 7.38395 24.9495 7.57824 24.9008C7.58932 24.898 7.60036 24.8953 7.61135 24.8925L11.1091 24.0181C11.1279 24.0134 11.1465 24.0088 11.165 24.0042C11.4411 23.9354 11.6856 23.8746 11.9076 23.7489C12.1296 23.6232 12.3076 23.4449 12.5086 23.2434C12.5221 23.2299 12.5356 23.2163 12.5493 23.2027L21.9349 13.817L21.9638 13.7882C22.3525 13.3996 22.6873 13.0647 22.9195 12.7605C23.1682 12.4345 23.3565 12.0719 23.3565 11.625C23.3565 11.1781 23.1682 10.8155 22.9195 10.4895C22.6874 10.1853 22.3525 9.85046 21.9638 9.46185L21.935 9.43298Z" stroke="#9E9C9D" stroke-width="1.24"/>
<path d="M16.146 9.68783L20.021 7.10449L23.896 10.9795L21.3127 14.8545L16.146 9.68783Z" fill="#9E9C9D"/>
</svg>
