<svg width="22" height="24" viewBox="0 0 22 24" fill="none" xmlns="http://www.w3.org/2000/svg">
<path d="M19.5882 17.833C20.4586 18.3651 20.9168 18.9686 20.9168 19.583C20.9168 20.1974 20.4586 20.8009 19.5882 21.333C18.7179 21.8651 17.466 22.3069 15.9585 22.6141C14.451 22.9213 12.7409 23.083 11.0002 23.083C9.25942 23.083 7.54935 22.9213 6.04183 22.6141C4.53431 22.3069 3.28245 21.8651 2.41208 21.333C1.54171 20.8009 1.0835 20.1974 1.0835 19.583C1.0835 18.9686 1.54171 18.3651 2.41208 17.833" stroke="#FE6A38" stroke-width="1.5" stroke-linecap="round"/>
<path d="M19.75 9.66602C19.75 15.5968 13.1787 19.5719 11.4256 20.5269C11.1568 20.6733 10.8432 20.6733 10.5744 20.5269C8.82127 19.5719 2.25 15.5968 2.25 9.66602C2.25 4.41602 6.48967 0.916016 11 0.916016C15.6667 0.916016 19.75 4.41602 19.75 9.66602Z" fill="#FE6A38" stroke="#FE6A38" stroke-width="1.5"/>
<path d="M14.9168 9.66569C14.9168 11.8288 13.1633 13.5824 11.0002 13.5824C8.83705 13.5824 7.0835 11.8288 7.0835 9.66569C7.0835 7.50257 8.83705 5.74902 11.0002 5.74902C13.1633 5.74902 14.9168 7.50257 14.9168 9.66569Z" fill="white" stroke="white" stroke-width="1.5"/>
</svg>
