<svg width="24" height="24" viewBox="0 0 24 24" fill="none" xmlns="http://www.w3.org/2000/svg">
<path d="M0 12C0 5.3726 5.3726 0 12 0C18.6274 0 24 5.3726 24 12C24 18.6274 18.6274 24 12 24C5.3726 24 0 18.6274 0 12Z" fill="#FFE812"/>
<path d="M12 5.5C7.5817 5.5 4 8.3241 4 11.8077C4 14.0599 5.4974 16.0361 7.74985 17.1521C7.6273 17.5747 6.9624 19.8709 6.9359 20.0513C6.9359 20.0513 6.92 20.1868 7.00775 20.2385C7.09555 20.2902 7.19875 20.25 7.19875 20.25C7.45045 20.2149 10.1175 18.3415 10.5791 18.0162C11.0403 18.0815 11.5151 18.1154 12 18.1154C16.4183 18.1154 20 15.2914 20 11.8077C20 8.3241 16.4183 5.5 12 5.5Z" fill="#381F1F"/>
<path fill-rule="evenodd" clip-rule="evenodd" d="M7.57698 14.0094C7.32243 14.0094 7.11543 13.8117 7.11543 13.5686V10.8267H6.39528C6.14553 10.8267 5.94238 10.6239 5.94238 10.3748C5.94238 10.1256 6.14558 9.92285 6.39528 9.92285H8.75868C9.00843 9.92285 9.21158 10.1256 9.21158 10.3748C9.21158 10.6239 9.00838 10.8267 8.75868 10.8267H8.03853V13.5686C8.03853 13.8117 7.83153 14.0094 7.57698 14.0094ZM11.624 14.0034C11.4316 14.0034 11.2844 13.9253 11.24 13.7996L11.0114 13.2013L9.60403 13.2012L9.37538 13.7999C9.33113 13.9253 9.18398 14.0034 8.99153 14.0034C8.89028 14.0035 8.79018 13.9818 8.69813 13.9397C8.57088 13.881 8.44858 13.7196 8.58873 13.2843L9.69273 10.3785C9.77053 10.1575 10.0067 9.92975 10.3074 9.9229C10.6088 9.9297 10.845 10.1575 10.923 10.3789L12.0265 13.2835C12.167 13.7198 12.0447 13.8813 11.9174 13.9398C11.8253 13.9818 11.7253 14.0035 11.624 14.0034ZM10.3077 11.0741L10.7687 12.3837H9.84673L10.3077 11.0741ZM12.7693 13.9421C12.5253 13.9421 12.327 13.7523 12.327 13.519V10.3844C12.327 10.1299 12.5383 9.92285 12.7981 9.92285C13.0579 9.92285 13.2693 10.1299 13.2693 10.3844V13.0959H14.25C14.494 13.0959 14.6924 13.2858 14.6924 13.519C14.6924 13.7523 14.494 13.9421 14.25 13.9421H12.7693ZM14.8719 13.5419C14.8719 13.7964 15.0789 14.0034 15.3334 14.0034C15.4558 14.0032 15.5732 13.9545 15.6597 13.868C15.7463 13.7814 15.795 13.6641 15.7951 13.5416V12.5346L15.9553 12.3745L17.0377 13.8086C17.0805 13.8659 17.1362 13.9123 17.2002 13.9442C17.2642 13.976 17.3348 13.9924 17.4063 13.9921C17.5066 13.9923 17.6042 13.9596 17.684 13.8989C17.7325 13.8626 17.7733 13.817 17.804 13.7647C17.8347 13.7125 17.8548 13.6546 17.863 13.5946C17.8717 13.5345 17.8683 13.4734 17.853 13.4147C17.8378 13.356 17.8111 13.3009 17.7744 13.2526L16.6383 11.7476L17.6901 10.6959C17.7624 10.6236 17.7987 10.5238 17.792 10.4149C17.7853 10.307 17.7371 10.2031 17.6563 10.1223C17.5696 10.0357 17.4539 9.986 17.3387 9.986C17.2399 9.986 17.1489 10.0225 17.0827 10.0887L15.795 11.3764V10.3844C15.795 10.1299 15.588 9.92285 15.3334 9.92285C15.0789 9.92285 14.8719 10.1299 14.8719 10.3844V13.5419Z" fill="#FFE812"/>
</svg>
