<svg width="34" height="34" viewBox="0 0 34 34" fill="none" xmlns="http://www.w3.org/2000/svg">
<circle cx="17" cy="17" r="17" fill="#FF865D"/>
<path d="M5.73735 11.4954C2.02831 14.0009 5.06892 19.6304 6.69747 21.2686C6.42596 23.6583 7.95416 28.2237 16.239 27.3677C25.1724 29.1329 26.8653 24.6808 26.595 22.2341C28.2844 18.3136 30.0171 17.0593 28.9733 14.391C28.0155 11.9425 25.6767 11.7838 24.6271 12.0104C24.7747 11.0743 24.497 8.88112 22.205 7.5976C19.9131 6.31408 18.1556 7.92277 17.5633 8.88756C17.0478 7.53237 15.2786 5.15397 12.3256 6.48193C9.37263 7.80989 9.26152 10.5663 9.57509 11.7786C9.57509 11.7786 7.90879 10.0285 5.73735 11.4954Z" fill="white"/>
<ellipse cx="13.5978" cy="11.0353" rx="2.02496" ry="2.29969" transform="rotate(-1.51659 13.5978 11.0353)" fill="#FFB69D"/>
<ellipse cx="7.53629" cy="15.5802" rx="2.02496" ry="2.29969" transform="rotate(-1.51659 7.53629 15.5802)" fill="#FFB69D"/>
<ellipse cx="20.4162" cy="11.0343" rx="2.02496" ry="2.29969" transform="rotate(-1.51659 20.4162 11.0343)" fill="#FFB69D"/>
<ellipse cx="25.7199" cy="15.5812" rx="2.02496" ry="2.29969" transform="rotate(-1.51659 25.7199 15.5812)" fill="#FFB69D"/>
<path d="M12.5812 17.7072C9.81707 17.9807 9.29804 20.717 10.1166 22.6001C10.9352 24.4831 12.6434 24.5106 13.8663 23.9823C14.8445 23.5596 16.0418 23.9063 16.5182 24.1325C20.3858 26.2044 23.2604 24.542 23.2995 21.4477C23.3308 18.9722 21.0368 18.0369 19.8859 17.8786C19.3616 16.8041 17.9027 16.2419 17.2388 16.095C15.8165 15.6637 14.952 16.6277 14.4482 17.2107C14.0452 17.677 13.0356 17.736 12.5812 17.7072Z" fill="#FFB69D"/>
</svg>
