<svg width="89" height="89" viewBox="0 0 89 89" fill="none" xmlns="http://www.w3.org/2000/svg">
<circle cx="44.2885" cy="44.2885" r="44.2885" fill="#FFD2C2"/>
<path d="M18.6159 30.5547C9.38975 36.7872 16.9532 50.7903 21.0041 54.8653C20.3287 60.8096 24.1301 72.1659 44.7383 70.0365C66.9598 74.4275 71.1708 63.353 70.4986 57.2669C74.7007 47.5147 79.0109 44.3949 76.4144 37.7574C74.0319 31.6671 68.2143 31.2721 65.6034 31.8359C65.9706 29.5073 65.2797 24.0519 59.5786 20.8592C53.8775 17.6665 49.5057 21.6681 48.0324 24.0679C46.7502 20.6969 42.3494 14.7808 35.0039 18.084C27.6585 21.3873 27.3821 28.2438 28.1621 31.2592C28.1621 31.2592 24.0172 26.906 18.6159 30.5547Z" fill="white"/>
<ellipse cx="38.1676" cy="29.4093" rx="5.03702" ry="5.72038" transform="rotate(-1.51659 38.1676 29.4093)" fill="#FF865D"/>
<ellipse cx="23.091" cy="40.7169" rx="5.03702" ry="5.72038" transform="rotate(-1.51659 23.091 40.7169)" fill="#FF865D"/>
<ellipse cx="55.1295" cy="29.4093" rx="5.03702" ry="5.72038" transform="rotate(-1.51659 55.1295 29.4093)" fill="#FF865D"/>
<ellipse cx="68.3219" cy="40.7169" rx="5.03702" ry="5.72038" transform="rotate(-1.51659 68.3219 40.7169)" fill="#FF865D"/>
<path d="M35.6414 46.0078C28.7658 46.6882 27.4747 53.4947 29.5109 58.1786C31.547 62.8626 35.7962 62.9311 38.838 61.6168C41.2715 60.5654 44.2497 61.4278 45.4346 61.9904C55.055 67.1442 62.2055 63.0092 62.3028 55.3121C62.3806 49.1545 56.6745 46.8278 53.8116 46.4342C52.5074 43.7615 48.8785 42.3628 47.227 41.9976C43.6891 40.9248 41.5386 43.3227 40.2856 44.7727C39.2832 45.9328 36.7718 46.0794 35.6414 46.0078Z" fill="#FF865D"/>
</svg>
